<svg xmlns="http://www.w3.org/2000/svg" version="1.1" xmlns:xlink="http://www.w3.org/1999/xlink" xmlns:svgjs="http://svgjs.dev/svgjs" width="1440" height="560" preserveAspectRatio="none" viewBox="0 0 1440 560"><g mask="url(&quot;#SvgjsMask1027&quot;)" fill="none"><path d="M799 218L798 560" stroke-width="8" stroke="url(&quot;#SvgjsLinearGradient1028&quot;)" stroke-linecap="round" class="Down"></path><path d="M548 341L547 83" stroke-width="10" stroke="url(&quot;#SvgjsLinearGradient1029&quot;)" stroke-linecap="round" class="Up"></path><path d="M1149 295L1148 -70" stroke-width="10" stroke="url(&quot;#SvgjsLinearGradient1028&quot;)" stroke-linecap="round" class="Down"></path><path d="M48 460L47 145" stroke-width="6" stroke="url(&quot;#SvgjsLinearGradient1029&quot;)" stroke-linecap="round" class="Up"></path><path d="M348 428L347 114" stroke-width="6" stroke="url(&quot;#SvgjsLinearGradient1029&quot;)" stroke-linecap="round" class="Up"></path><path d="M971 471L970 692" stroke-width="8" stroke="url(&quot;#SvgjsLinearGradient1029&quot;)" stroke-linecap="round" class="Up"></path><path d="M752 98L751 -212" stroke-width="10" stroke="url(&quot;#SvgjsLinearGradient1028&quot;)" stroke-linecap="round" class="Down"></path><path d="M294 370L293 728" stroke-width="10" stroke="url(&quot;#SvgjsLinearGradient1029&quot;)" stroke-linecap="round" class="Up"></path><path d="M1302 54L1301 -196" stroke-width="8" stroke="url(&quot;#SvgjsLinearGradient1029&quot;)" stroke-linecap="round" class="Up"></path><path d="M1356 28L1355 399" stroke-width="8" stroke="url(&quot;#SvgjsLinearGradient1028&quot;)" stroke-linecap="round" class="Down"></path><path d="M464 414L463 612" stroke-width="6" stroke="url(&quot;#SvgjsLinearGradient1028&quot;)" stroke-linecap="round" class="Down"></path><path d="M799 70L798 -257" stroke-width="8" stroke="url(&quot;#SvgjsLinearGradient1028&quot;)" stroke-linecap="round" class="Down"></path><path d="M1356 225L1355 447" stroke-width="8" stroke="url(&quot;#SvgjsLinearGradient1029&quot;)" stroke-linecap="round" class="Up"></path><path d="M342 85L341 420" stroke-width="6" stroke="url(&quot;#SvgjsLinearGradient1029&quot;)" stroke-linecap="round" class="Up"></path><path d="M1229 539L1228 841" stroke-width="6" stroke="url(&quot;#SvgjsLinearGradient1029&quot;)" stroke-linecap="round" class="Up"></path><path d="M1163 106L1162 -108" stroke-width="6" stroke="url(&quot;#SvgjsLinearGradient1029&quot;)" stroke-linecap="round" class="Up"></path><path d="M538 44L537 363" stroke-width="6" stroke="url(&quot;#SvgjsLinearGradient1028&quot;)" stroke-linecap="round" class="Down"></path><path d="M37 171L36 -82" stroke-width="10" stroke="url(&quot;#SvgjsLinearGradient1028&quot;)" stroke-linecap="round" class="Down"></path><path d="M1138 95L1137 511" stroke-width="8" stroke="url(&quot;#SvgjsLinearGradient1029&quot;)" stroke-linecap="round" class="Up"></path><path d="M1291 83L1290 -105" stroke-width="6" stroke="url(&quot;#SvgjsLinearGradient1028&quot;)" stroke-linecap="round" class="Down"></path><path d="M20 163L19 -129" stroke-width="8" stroke="url(&quot;#SvgjsLinearGradient1029&quot;)" stroke-linecap="round" class="Up"></path><path d="M425 471L424 866" stroke-width="10" stroke="url(&quot;#SvgjsLinearGradient1029&quot;)" stroke-linecap="round" class="Up"></path><path d="M769 339L768 109" stroke-width="10" stroke="url(&quot;#SvgjsLinearGradient1028&quot;)" stroke-linecap="round" class="Down"></path><path d="M177 82L176 -100" stroke-width="10" stroke="url(&quot;#SvgjsLinearGradient1029&quot;)" stroke-linecap="round" class="Up"></path><path d="M672 529L671 347" stroke-width="10" stroke="url(&quot;#SvgjsLinearGradient1029&quot;)" stroke-linecap="round" class="Up"></path><path d="M1178 558L1177 403" stroke-width="10" stroke="url(&quot;#SvgjsLinearGradient1029&quot;)" stroke-linecap="round" class="Up"></path><path d="M132 498L131 719" stroke-width="8" stroke="url(&quot;#SvgjsLinearGradient1029&quot;)" stroke-linecap="round" class="Up"></path><path d="M846 147L845 -112" stroke-width="10" stroke="url(&quot;#SvgjsLinearGradient1028&quot;)" stroke-linecap="round" class="Down"></path><path d="M511 284L510 683" stroke-width="10" stroke="url(&quot;#SvgjsLinearGradient1029&quot;)" stroke-linecap="round" class="Up"></path><path d="M557 341L556 179" stroke-width="8" stroke="url(&quot;#SvgjsLinearGradient1028&quot;)" stroke-linecap="round" class="Down"></path><path d="M1086 188L1085 -40" stroke-width="10" stroke="url(&quot;#SvgjsLinearGradient1028&quot;)" stroke-linecap="round" class="Down"></path><path d="M627 393L626 796" stroke-width="6" stroke="url(&quot;#SvgjsLinearGradient1028&quot;)" stroke-linecap="round" class="Down"></path><path d="M401 378L400 764" stroke-width="6" stroke="url(&quot;#SvgjsLinearGradient1029&quot;)" stroke-linecap="round" class="Up"></path><path d="M436 298L435 132" stroke-width="10" stroke="url(&quot;#SvgjsLinearGradient1029&quot;)" stroke-linecap="round" class="Up"></path><path d="M186 35L185 -203" stroke-width="10" stroke="url(&quot;#SvgjsLinearGradient1028&quot;)" stroke-linecap="round" class="Down"></path><path d="M833 542L832 799" stroke-width="8" stroke="url(&quot;#SvgjsLinearGradient1029&quot;)" stroke-linecap="round" class="Up"></path></g><defs><mask id="SvgjsMask1027"><rect width="1440" height="560" fill="#ffffff"></rect></mask><linearGradient x1="0%" y1="0%" x2="0%" y2="100%" id="SvgjsLinearGradient1028"><stop stop-color="rgba(42, 163, 254, 0)" offset="0"></stop><stop stop-color="rgba(42, 163, 254, 0.17)" offset="1"></stop></linearGradient><linearGradient x1="0%" y1="100%" x2="0%" y2="0%" id="SvgjsLinearGradient1029"><stop stop-color="rgba(42, 163, 254, 0)" offset="0"></stop><stop stop-color="rgba(42, 163, 254, 0.17)" offset="1"></stop></linearGradient></defs></svg>